<svg id="Capa_1" enable-background="new 0 0 512 512" height="512" viewBox="0 0 512 512" width="512" xmlns="http://www.w3.org/2000/svg"><g><path d="m159 142h34v58h-34z"/><path d="m303 81h34v48h-34z"/><path d="m303 383h34v48h-34z"/><path d="m303 311h34v42h-34z"/><path d="m303 231h34v50h-34z"/><path d="m303 159h34v42h-34z"/><path d="m411 81h-44v350h44c8.284 0 15-6.716 15-15v-320c0-8.284-6.716-15-15-15z"/><path d="m129 81h-49c-8.284 0-15 6.716-15 15v38.665l-56.625 27.877c-5.127 2.525-8.375 7.743-8.375 13.458v160c0 5.715 3.248 10.933 8.375 13.458l56.625 27.877v38.665c0 8.284 6.716 15 15 15h49z"/><path d="m223 81h50v350h-50z"/><path d="m159 230h34v50h-34z"/><path d="m456 119.459v273.083c17.957-12.273 56-48.648 56-136.541s-38.043-124.27-56-136.542z"/><path d="m159 310h34v58h-34z"/><path d="m193 398h-34v50c0 8.284 6.716 15 15 15h4c8.284 0 15-6.716 15-15z"/><path d="m159 112h34v-48c0-8.284-6.716-15-15-15h-4c-8.284 0-15 6.716-15 15z"/></g></svg>